# xmcd
#
# Track frame offsets:
#	150
#	16091
#	30496
#	63287
#	77924
#	95605
#	108401
#	133349
#	148158
#	166956
#	179244
#
# Disc length: 2770 seconds
#
# Revision: 1
# Processed by: cddbd v1.5.2PL0 Copyright (c) Steve Scherf et al.
# Submitted via: audiograbber 1.83.01
#
DISCID=980ad00b
DTITLE=Cat Lee and Co - Moon Follows
DYEAR=2006
DGENRE=blues
TTITLE0=Lil miss monster
TTITLE1=Walking after midnight
TTITLE2=Moon follows
TTITLE3=Fat catfish blues
TTITLE4=Tears no more
TTITLE5=Annabell Lee
TTITLE6=Blues for a friend
TTITLE7=Freewheelin blues
TTITLE8=I know
TTITLE9=Stefanology
TTITLE10=Keep on trying
EXTD=
EXTT0=
EXTT1=
EXTT2=
EXTT3=
EXTT4=
EXTT5=
EXTT6=
EXTT7=
EXTT8=
EXTT9=
EXTT10=
PLAYORDER=
